<svg xmlns="http://www.w3.org/2000/svg" viewBox="0 308 736 390" width="736pt" height="520"><g fill="none"><title>Figure 1 - Outlines</title><path fill="#fff" d="M0 0h736v390H0z"/><title>Layer 1</title><path fill="#e1f6fe" d="M34 439h314.5v227.5H34z"/><path stroke="#fff" stroke-linecap="round" stroke-linejoin="round" stroke-width="2" d="M34 439h314.5v227.5H34z"/><path fill="#fff" d="M289.6 344h156.8v56H289.6z"/><path stroke="#dfdfdf" stroke-linecap="round" stroke-linejoin="round" d="M289.6 344h156.8v56H289.6z"/><path d="M333.391 370.714l-5.754-10.006c-.461-.8-1.297-1.286-2.158-1.286h-11.508c-.922 0-1.727.54-2.158 1.285l-5.754 9.986a2.51 2.51 0 0 0 0 2.502l5.754 10.052c.46.798 1.297 1.331 2.158 1.331h11.508c.922 0 1.727-.581 2.158-1.326l5.754-10.006a2.566 2.566 0 0 0 0-2.532" fill="#4285f4"/><path d="M327.637 383.252l3.835-6.67-8.11-8.11-3.637-.972-3.267 1.213-1.261 3.287 1.014 3.66 8.92 8.918h.348c.922 0 1.727-.581 2.158-1.326" fill="#000" fill-opacity=".07"/><path d="M319.725 375.85a3.85 3.85 0 1 1 0-7.7 3.85 3.85 0 0 1 0 7.7m0-8.924a5.074 5.074 0 1 0 0 10.147 5.074 5.074 0 0 0 0-10.147" fill="#fff"/><path d="M317.317 371.804v1.577c.233.401.563.737.958.98v-2.557zm1.899-1.329v4.246c.163.03.33.048.501.048.157 0 .309-.017.458-.042v-4.252zm1.989 1.985v1.872a2.8 2.8 0 0 0 .959-1.028v-.844zm2.171 2.665l-.525.527a.237.237 0 0 0 0 .335l1.993 1.994a.238.238 0 0 0 .336 0l.526-.526a.238.238 0 0 0 0-.335l-1.994-1.995a.237.237 0 0 0-.336 0" fill="#fff"/><path fill="#b1e5fe" d="M48.75 477.5h132v174h-132z"/><path stroke="#fff" stroke-linecap="round" stroke-linejoin="round" stroke-width="2" d="M48.75 477.5h132v174h-132z"/><path fill="#fff" d="M59.745 514.5H169.75v56H59.745z"/><path stroke="#dfdfdf" stroke-linecap="round" stroke-linejoin="round" d="M59.745 514.5H169.75v56H59.745z"/><path fill="#fff" d="M59.745 583.5H169.75v56H59.745z"/><path stroke="#dfdfdf" stroke-linecap="round" stroke-linejoin="round" d="M59.745 583.5H169.75v56H59.745z"/><path d="M191.036 438.5l-.118-58.92V372H289.6" stroke="#616161" stroke-linecap="round" stroke-linejoin="round" stroke-dasharray="4,4"/><path fill="#b1e5fe" d="M200.25 477.5h132v174h-132z"/><path stroke="#fff" stroke-linecap="round" stroke-linejoin="round" stroke-width="2" d="M200.25 477.5h132v174h-132z"/><path fill="#fff" d="M211.245 514.5H321.25v56H211.245z"/><path stroke="#dfdfdf" stroke-linecap="round" stroke-linejoin="round" d="M211.245 514.5H321.25v56H211.245z"/><path fill="#fff" d="M211.245 583.5H321.25v56H211.245z"/><path stroke="#dfdfdf" stroke-linecap="round" stroke-linejoin="round" d="M211.245 583.5H321.25v56H211.245z"/><path fill="#e2f4eb" d="M387.5 439H702v227.5H387.5z"/><path stroke="#fff" stroke-linecap="round" stroke-linejoin="round" stroke-width="2" d="M387.5 439H702v227.5H387.5z"/><path fill="#b6e2cd" d="M402.25 477.5h132v174h-132z"/><path stroke="#fff" stroke-linecap="round" stroke-linejoin="round" stroke-width="2" d="M402.25 477.5h132v174h-132z"/><path fill="#fff" d="M413.245 514.5H523.25v56H413.245z"/><path stroke="#dfdfdf" stroke-linecap="round" stroke-linejoin="round" d="M413.245 514.5H523.25v56H413.245z"/><path fill="#fff" d="M413.245 583.5H523.25v56H413.245z"/><path stroke="#dfdfdf" stroke-linecap="round" stroke-linejoin="round" d="M413.245 583.5H523.25v56H413.245z"/><path d="M544.449 438.5l-.158-56.219V372H446.4" stroke="#616161" stroke-linecap="round" stroke-linejoin="round" stroke-dasharray="4,4"/><path fill="#b6e2cd" d="M553.75 477.5h132v174h-132z"/><path stroke="#fff" stroke-linecap="round" stroke-linejoin="round" stroke-width="2" d="M553.75 477.5h132v174h-132z"/><path fill="#fff" d="M564.745 514.5H674.75v56H564.745z"/><path stroke="#dfdfdf" stroke-linecap="round" stroke-linejoin="round" d="M564.745 514.5H674.75v56H564.745z"/><path fill="#fff" d="M564.745 583.5H674.75v56H564.745z"/><path stroke="#dfdfdf" stroke-linecap="round" stroke-linejoin="round" d="M564.745 583.5H674.75v56H564.745z"/><path d="M404.263 460.217V463h-.938v-7.11h2.622c.778 0 1.388.2 1.829.596.441.397.661.923.661 1.577 0 .69-.215 1.222-.646 1.595-.432.372-1.05.559-1.853.559zm0-.767h1.684c.502 0 .886-.118 1.153-.354s.4-.577.4-1.023c0-.423-.133-.761-.4-1.015-.267-.254-.634-.386-1.099-.396h-1.738zm7.783-.923a2.708 2.708 0 0 0-.444-.034c-.593 0-.995.252-1.206.757V463h-.904v-5.283h.88l.014.61c.296-.472.716-.708 1.26-.708.175 0 .309.023.4.068zm.424 1.783c0-.518.102-.983.306-1.397.203-.413.487-.732.85-.957a2.313 2.313 0 0 1 1.242-.337c.72 0 1.301.25 1.746.747.444.498.666 1.16.666 1.988v.063c0 .514-.098.976-.295 1.384a2.243 2.243 0 0 1-.845.955 2.34 2.34 0 0 1-1.262.342c-.716 0-1.296-.25-1.74-.747-.445-.498-.667-1.158-.667-1.978zm.909.107c0 .586.136 1.056.408 1.411.271.355.635.532 1.09.532.46 0 .825-.18 1.095-.54.27-.359.405-.863.405-1.51 0-.58-.138-1.05-.413-1.41a1.312 1.312 0 0 0-1.096-.539c-.446 0-.805.178-1.079.533-.273.354-.41.862-.41 1.523zm5.967-2.7v5.893c0 1.016-.46 1.524-1.382 1.524a1.69 1.69 0 0 1-.552-.088v-.723c.104.026.241.04.41.04.202 0 .356-.055.462-.164.106-.11.158-.299.158-.57v-5.912zm-.996-1.402c0-.143.044-.266.134-.368.09-.103.22-.154.393-.154.176 0 .31.05.4.151a.535.535 0 0 1 .137.371.516.516 0 0 1-.137.367c-.09.097-.224.146-.4.146-.176 0-.308-.049-.396-.146a.527.527 0 0 1-.131-.367zm4.643 6.783c-.716 0-1.299-.236-1.748-.706-.45-.47-.674-1.1-.674-1.887v-.166c0-.524.1-.992.3-1.404.2-.412.48-.734.84-.967.36-.233.75-.349 1.17-.349.687 0 1.22.226 1.601.679.381.452.572 1.1.572 1.943v.376h-3.58c.014.521.166.942.457 1.262.292.321.662.481 1.111.481.319 0 .59-.065.81-.195.222-.13.416-.303.582-.518l.551.43c-.442.68-1.106 1.02-1.992 1.02zm-.112-4.737c-.365 0-.67.133-.918.398-.248.266-.4.637-.46 1.116h2.647v-.068c-.026-.46-.15-.815-.37-1.067-.222-.253-.522-.379-.9-.379zm5.337 3.999c.322 0 .604-.097.844-.293.241-.195.375-.44.4-.732h.855c-.016.303-.12.59-.312.864a2.058 2.058 0 0 1-.77.654c-.32.163-.66.245-1.017.245-.72 0-1.292-.24-1.717-.72-.424-.48-.637-1.137-.637-1.97v-.152c0-.514.095-.972.283-1.372.19-.4.46-.712.813-.933.354-.221.771-.332 1.253-.332.592 0 1.085.178 1.477.532.392.355.601.816.627 1.382h-.854a1.245 1.245 0 0 0-.388-.842c-.233-.22-.52-.33-.862-.33-.46 0-.815.166-1.067.496-.252.33-.378.808-.378 1.433v.17c0 .61.125 1.078.376 1.407.25.329.608.493 1.074.493zm4.341-5.922v1.279h.986v.698h-.986v3.276c0 .212.044.37.131.477.088.105.238.158.45.158.104 0 .247-.02.43-.058V463a2.619 2.619 0 0 1-.694.098c-.404 0-.708-.122-.913-.367-.205-.244-.308-.59-.308-1.04v-3.276h-.962v-.698h.962v-1.28zm6.826 3.022l1.855-3.57h1.065l-2.452 4.459V463h-.937v-2.651l-2.451-4.458h1.074zm125.19 42.04v-7.11h2.007c.619 0 1.165.137 1.64.41.476.274.843.663 1.102 1.168.259.504.39 1.084.393 1.738v.454c0 .67-.13 1.258-.388 1.763a2.73 2.73 0 0 1-1.109 1.162c-.48.27-1.039.409-1.677.415zm.938-6.338v5.571h.986c.723 0 1.285-.224 1.687-.673.402-.45.603-1.09.603-1.92v-.414c0-.808-.19-1.435-.569-1.883-.379-.447-.917-.674-1.614-.68zm8.74 6.338c-.052-.104-.095-.29-.127-.557-.42.437-.921.655-1.504.655-.52 0-.948-.148-1.282-.442a1.43 1.43 0 0 1-.5-1.12c0-.551.209-.978.627-1.283.419-.304 1.007-.456 1.765-.456h.88v-.415c0-.316-.095-.567-.284-.755-.189-.187-.467-.28-.835-.28-.322 0-.592.081-.81.244-.218.163-.327.36-.327.59h-.909c0-.263.094-.518.281-.763a1.92 1.92 0 0 1 .762-.584c.32-.143.673-.215 1.057-.215.609 0 1.086.152 1.43.457.346.304.525.723.538 1.257v2.432c0 .485.062.87.185 1.157v.078zm-1.5-.688c.284 0 .553-.074.807-.22.254-.147.437-.337.551-.571v-1.084h-.708c-1.106 0-1.66.323-1.66.971 0 .283.095.505.283.664.19.16.432.24.728.24zm4.903-5.874v1.279h.987v.698h-.987v3.276c0 .212.044.37.132.477.088.105.238.158.45.158.103 0 .247-.02.429-.058v.732a2.62 2.62 0 0 1-.693.098c-.404 0-.708-.122-.913-.367-.206-.244-.308-.59-.308-1.04v-3.276h-.962v-.698h.962v-1.28zm5.303 6.562c-.052-.104-.094-.29-.127-.557-.42.437-.921.655-1.504.655-.52 0-.948-.148-1.282-.442a1.43 1.43 0 0 1-.5-1.12c0-.551.209-.978.627-1.283.419-.304 1.007-.456 1.765-.456h.88v-.415c0-.316-.095-.567-.284-.755-.189-.187-.467-.28-.835-.28-.322 0-.592.081-.81.244-.218.163-.327.36-.327.59h-.909c0-.263.094-.518.281-.763a1.92 1.92 0 0 1 .762-.584c.32-.143.673-.215 1.057-.215.609 0 1.086.152 1.43.457.346.304.525.723.538 1.257v2.432c0 .485.062.87.185 1.157v.078zm-1.499-.688c.283 0 .552-.074.806-.22a1.33 1.33 0 0 0 .551-.571v-1.084h-.708c-1.106 0-1.66.323-1.66.971 0 .283.095.505.283.664.19.16.432.24.728.24zm6.753-.713a.665.665 0 0 0-.276-.57c-.184-.134-.505-.25-.962-.348-.457-.098-.82-.215-1.089-.352-.268-.137-.467-.3-.596-.488a1.168 1.168 0 0 1-.192-.674c0-.433.183-.8.549-1.099.366-.3.834-.449 1.404-.449.599 0 1.085.155 1.457.464.373.31.56.705.56 1.187h-.909c0-.248-.105-.461-.315-.64-.21-.18-.474-.269-.793-.269-.329 0-.586.072-.772.215a.676.676 0 0 0-.278.562c0 .218.086.382.259.493.172.11.484.216.935.317.45.101.816.222 1.096.362.28.14.487.308.623.505.135.197.202.437.202.72 0 .472-.189.85-.566 1.135-.378.285-.868.428-1.47.428a2.66 2.66 0 0 1-1.123-.225 1.826 1.826 0 0 1-.764-.627 1.512 1.512 0 0 1-.276-.872h.903a.935.935 0 0 0 .364.72c.226.178.525.266.896.266.342 0 .616-.069.823-.207a.638.638 0 0 0 .31-.554zm4.272 1.499c-.716 0-1.298-.236-1.748-.706-.449-.47-.673-1.1-.673-1.887v-.166c0-.524.1-.992.3-1.404.2-.412.48-.734.84-.967.36-.233.75-.349 1.17-.349.686 0 1.22.226 1.6.679.381.452.572 1.1.572 1.943v.376h-3.58c.014.521.166.942.457 1.262.292.321.662.481 1.111.481.32 0 .59-.065.81-.195.222-.13.416-.303.582-.518l.552.43c-.443.68-1.107 1.02-1.993 1.02zm-.112-4.737c-.365 0-.67.133-.918.398-.247.266-.4.637-.459 1.116h2.647v-.068c-.026-.46-.15-.815-.372-1.067-.22-.253-.52-.379-.898-.379zm4.443-1.923v1.279h.987v.698h-.987v3.276c0 .212.044.37.132.477.088.105.238.158.45.158.104 0 .247-.02.43-.058v.732a2.62 2.62 0 0 1-.694.098c-.404 0-.708-.122-.913-.367-.205-.244-.308-.59-.308-1.04v-3.276h-.962v-.698h.962v-1.28zm4.659 6.562v-7.11h2.006c.619 0 1.166.137 1.641.41a2.78 2.78 0 0 1 1.101 1.168c.259.504.39 1.084.393 1.738v.454c0 .67-.13 1.258-.388 1.763a2.73 2.73 0 0 1-1.108 1.162c-.48.27-1.04.409-1.678.415zm.937-6.338v5.571h.986c.723 0 1.285-.224 1.687-.673.402-.45.603-1.09.603-1.92v-.414c0-.808-.19-1.435-.568-1.883-.38-.447-.918-.674-1.614-.68z" fill="#757575"/><path d="M607.908 607.894h-2.742v7.606h-1.119v-7.606h-2.736v-.925h6.597zm4.055 7.606c-.062-.125-.113-.348-.152-.668-.504.524-1.106.785-1.805.785-.625 0-1.138-.177-1.538-.53-.4-.354-.6-.802-.6-1.345 0-.66.25-1.173.752-1.538s1.208-.548 2.119-.548h1.054v-.498c0-.379-.113-.68-.34-.905-.226-.225-.56-.337-1.002-.337-.386 0-.71.098-.972.293-.262.195-.393.432-.393.709h-1.09c0-.316.113-.622.337-.917.225-.295.53-.528.914-.7a3.074 3.074 0 0 1 1.269-.258c.73 0 1.303.183 1.717.548.414.365.629.868.644 1.509v2.918c0 .582.074 1.044.223 1.388v.094zm-1.799-.826c.34 0 .662-.088.967-.264.305-.176.525-.404.662-.685v-1.301h-.85c-1.328 0-1.992.389-1.992 1.166 0 .34.114.605.34.797.227.191.518.287.873.287zm9.78-2.274c0 .97-.223 1.747-.668 2.335-.446.588-1.043.882-1.793.882-.801 0-1.42-.283-1.858-.85l-.053.733h-.996v-9h1.084v3.357c.438-.543 1.041-.814 1.81-.814.77 0 1.375.291 1.814.873.44.582.66 1.379.66 2.39zm-1.084-.123c0-.738-.143-1.308-.428-1.71-.285-.403-.696-.604-1.23-.604-.716 0-1.23.332-1.542.996v2.742c.332.664.85.996 1.553.996.52 0 .924-.2 1.213-.603.289-.403.434-1.008.434-1.817zm2.543-5.777h1.084v9h-1.084zm5.449 9.117c-.86 0-1.559-.282-2.098-.846-.539-.565-.808-1.32-.808-2.265v-.2c0-.628.12-1.19.36-1.684a2.81 2.81 0 0 1 1.008-1.16c.431-.28.9-.419 1.403-.419.824 0 1.465.271 1.922.814.457.543.685 1.32.685 2.332v.452h-4.294c.015.625.198 1.13.547 1.514.35.385.794.577 1.333.577.383 0 .707-.078.973-.234.266-.156.498-.363.697-.621l.662.516c-.53.816-1.328 1.224-2.39 1.224zm-.135-5.683c-.438 0-.805.159-1.102.477-.296.319-.48.765-.55 1.339h3.175v-.082c-.03-.55-.18-.978-.445-1.28-.265-.303-.625-.454-1.078-.454zm12.311 5.566h-5.59v-.78l2.953-3.28c.437-.497.74-.9.905-1.21a2.02 2.02 0 0 0 .25-.964c0-.446-.136-.81-.405-1.096-.27-.285-.63-.428-1.078-.428-.54 0-.958.154-1.257.46-.299.307-.448.734-.448 1.28h-1.084c0-.785.253-1.42.758-1.904.506-.484 1.183-.726 2.03-.726.794 0 1.42.208 1.882.624.46.416.691.97.691 1.66 0 .84-.535 1.84-1.606 3l-2.285 2.48h4.284z" fill="#212121"/><path d="M413.075 501.5v-7.11h2.007c.618 0 1.165.137 1.64.41.476.274.843.663 1.102 1.168.258.504.39 1.084.393 1.738v.454c0 .67-.13 1.258-.388 1.763a2.73 2.73 0 0 1-1.109 1.162c-.48.27-1.039.409-1.677.415zm.938-6.338v5.571h.986c.723 0 1.285-.224 1.687-.673.402-.45.603-1.09.603-1.92v-.414c0-.808-.19-1.435-.569-1.883-.379-.447-.917-.674-1.614-.68zm8.74 6.338c-.052-.104-.094-.29-.127-.557-.42.437-.921.655-1.504.655-.52 0-.948-.148-1.282-.442a1.43 1.43 0 0 1-.5-1.12c0-.551.209-.978.627-1.283.419-.304 1.007-.456 1.765-.456h.88v-.415c0-.316-.095-.567-.284-.755-.189-.187-.467-.28-.835-.28-.322 0-.592.081-.81.244-.219.163-.328.36-.328.59h-.908c0-.263.094-.518.281-.763a1.92 1.92 0 0 1 .762-.584c.32-.143.673-.215 1.057-.215.609 0 1.085.152 1.43.457.346.304.525.723.538 1.257v2.432c0 .485.062.87.185 1.157v.078zm-1.5-.688c.284 0 .553-.074.807-.22.253-.147.437-.337.551-.571v-1.084h-.708c-1.106 0-1.66.323-1.66.971 0 .283.095.505.283.664.19.16.432.24.728.24zm4.903-5.874v1.279h.987v.698h-.987v3.276c0 .212.044.37.132.477.088.105.238.158.45.158.103 0 .247-.02.429-.058v.732a2.62 2.62 0 0 1-.693.098c-.404 0-.708-.122-.913-.367-.206-.244-.308-.59-.308-1.04v-3.276h-.962v-.698h.962v-1.28zm5.303 6.562c-.052-.104-.094-.29-.127-.557-.42.437-.921.655-1.504.655-.52 0-.948-.148-1.282-.442a1.43 1.43 0 0 1-.5-1.12c0-.551.209-.978.627-1.283.419-.304 1.007-.456 1.765-.456h.88v-.415c0-.316-.095-.567-.284-.755-.189-.187-.467-.28-.835-.28-.322 0-.592.081-.81.244-.218.163-.327.36-.327.59h-.909c0-.263.094-.518.281-.763a1.92 1.92 0 0 1 .762-.584c.32-.143.673-.215 1.057-.215.609 0 1.086.152 1.43.457.346.304.525.723.538 1.257v2.432c0 .485.062.87.185 1.157v.078zm-1.499-.688c.283 0 .552-.074.806-.22a1.33 1.33 0 0 0 .551-.571v-1.084h-.708c-1.106 0-1.66.323-1.66.971 0 .283.095.505.283.664.19.16.432.24.728.24zm6.753-.713a.665.665 0 0 0-.276-.57c-.184-.134-.505-.25-.962-.348-.457-.098-.82-.215-1.089-.352-.268-.137-.467-.3-.595-.488a1.168 1.168 0 0 1-.193-.674c0-.433.183-.8.549-1.099.366-.3.834-.449 1.404-.449.599 0 1.085.155 1.457.464.373.31.56.705.56 1.187h-.909c0-.248-.105-.461-.315-.64-.21-.18-.474-.269-.793-.269-.329 0-.586.072-.772.215a.676.676 0 0 0-.278.562c0 .218.086.382.259.493.172.11.484.216.935.317.45.101.816.222 1.096.362.28.14.488.308.623.505s.202.437.202.72c0 .472-.189.85-.566 1.135-.378.285-.868.428-1.47.428a2.66 2.66 0 0 1-1.123-.225 1.827 1.827 0 0 1-.764-.627 1.512 1.512 0 0 1-.276-.872h.903a.935.935 0 0 0 .364.72c.226.178.525.266.896.266.342 0 .616-.069.823-.207a.638.638 0 0 0 .31-.554zm4.272 1.499c-.716 0-1.298-.236-1.748-.706-.449-.47-.674-1.1-.674-1.887v-.166c0-.524.1-.992.3-1.404.201-.412.48-.734.84-.967.36-.233.75-.349 1.17-.349.687 0 1.22.226 1.602.679.38.452.57 1.1.57 1.943v.376h-3.578c.013.521.165.942.456 1.262.292.321.662.481 1.111.481.32 0 .59-.065.81-.195.222-.13.416-.303.582-.518l.552.43c-.443.68-1.107 1.02-1.993 1.02zm-.112-4.737c-.365 0-.67.133-.918.398-.247.266-.4.637-.459 1.116h2.647v-.068c-.026-.46-.15-.815-.371-1.067-.222-.253-.521-.379-.899-.379zm4.443-1.923v1.279h.987v.698h-.987v3.276c0 .212.044.37.132.477.088.105.238.158.45.158.104 0 .247-.02.43-.058v.732a2.62 2.62 0 0 1-.694.098c-.404 0-.708-.122-.913-.367-.205-.244-.308-.59-.308-1.04v-3.276h-.962v-.698h.962v-1.28zm9.888 4.306c-.088.752-.365 1.332-.832 1.74-.468.41-1.088.614-1.863.614-.84 0-1.513-.301-2.02-.904-.505-.602-.759-1.408-.759-2.417v-.683c0-.661.118-1.242.354-1.743.236-.502.57-.887 1.004-1.155.433-.269.934-.403 1.504-.403.755 0 1.36.21 1.816.632.456.422.721 1.005.796 1.75h-.942c-.082-.566-.258-.976-.53-1.23s-.652-.38-1.14-.38c-.6 0-1.069.22-1.409.663-.34.443-.51 1.073-.51 1.89v.689c0 .771.161 1.385.483 1.84.322.456.773.684 1.353.684.52 0 .92-.118 1.198-.354.279-.236.464-.647.555-1.233z" fill="#757575"/><path d="M456.408 607.894h-2.742v7.606h-1.119v-7.606h-2.736v-.925h6.597zm4.055 7.606c-.062-.125-.113-.348-.152-.668-.504.524-1.106.785-1.805.785-.625 0-1.138-.177-1.538-.53-.4-.354-.6-.802-.6-1.345 0-.66.25-1.173.752-1.538s1.208-.548 2.118-.548h1.055v-.498c0-.379-.113-.68-.34-.905-.226-.225-.56-.337-1.002-.337-.386 0-.71.098-.972.293-.262.195-.393.432-.393.709h-1.09c0-.316.113-.622.337-.917.225-.295.53-.528.914-.7a3.075 3.075 0 0 1 1.269-.258c.73 0 1.303.183 1.717.548.414.365.629.868.644 1.509v2.918c0 .582.074 1.044.223 1.388v.094zm-1.799-.826c.34 0 .662-.088.967-.264.305-.176.525-.404.662-.685v-1.301h-.85c-1.328 0-1.992.389-1.992 1.166 0 .34.114.605.34.797.227.191.518.287.873.287zm9.78-2.274c0 .97-.223 1.747-.668 2.335-.446.588-1.043.882-1.793.882-.801 0-1.42-.283-1.858-.85l-.053.733h-.996v-9h1.084v3.357c.438-.543 1.041-.814 1.81-.814.77 0 1.375.291 1.814.873.44.582.66 1.379.66 2.39zm-1.084-.123c0-.738-.143-1.308-.428-1.71-.285-.403-.695-.604-1.23-.604-.716 0-1.23.332-1.542.996v2.742c.332.664.85.996 1.553.996.52 0 .924-.2 1.213-.603.29-.403.434-1.008.434-1.817zm2.543-5.777h1.084v9h-1.084zm5.449 9.117c-.86 0-1.559-.282-2.098-.846-.539-.565-.809-1.32-.809-2.265v-.2c0-.628.12-1.19.36-1.684a2.81 2.81 0 0 1 1.009-1.16c.431-.28.9-.419 1.403-.419.824 0 1.465.271 1.922.814.457.543.685 1.32.685 2.332v.452h-4.295c.016.625.199 1.13.548 1.514.35.385.794.577 1.333.577.383 0 .707-.078.973-.234.266-.156.498-.363.697-.621l.662.516c-.53.816-1.328 1.224-2.39 1.224zm-.135-5.683c-.438 0-.805.159-1.102.477-.296.319-.48.765-.55 1.339h3.175v-.082c-.03-.55-.18-.978-.445-1.28-.266-.303-.625-.454-1.078-.454zm12.311 5.566h-5.59v-.78l2.953-3.28c.437-.497.74-.9.905-1.21a2.02 2.02 0 0 0 .25-.964c0-.446-.136-.81-.405-1.096-.27-.285-.63-.428-1.078-.428-.54 0-.958.154-1.257.46-.299.307-.448.734-.448 1.28h-1.084c0-.785.253-1.42.758-1.904.506-.484 1.183-.726 2.03-.726.794 0 1.42.208 1.882.624.46.416.691.97.691 1.66 0 .84-.535 1.84-1.606 3l-2.285 2.48h4.284zm120.38-76.606h-2.742v7.606h-1.119v-7.606h-2.736v-.925h6.597zm4.055 7.606c-.062-.125-.113-.348-.152-.668-.504.524-1.106.785-1.805.785-.625 0-1.138-.177-1.538-.53-.4-.354-.6-.802-.6-1.345 0-.66.25-1.173.752-1.538s1.208-.548 2.119-.548h1.054v-.498c0-.379-.113-.68-.34-.905-.226-.225-.56-.337-1.002-.337-.386 0-.71.098-.972.293-.262.195-.393.432-.393.709h-1.09c0-.316.113-.622.337-.917.225-.295.53-.528.914-.7a3.074 3.074 0 0 1 1.269-.258c.73 0 1.303.183 1.717.548.414.365.629.868.644 1.509v2.918c0 .582.074 1.044.223 1.388v.094zm-1.799-.826c.34 0 .662-.088.967-.264.305-.176.525-.404.662-.685v-1.301h-.85c-1.328 0-1.992.389-1.992 1.166 0 .34.114.605.34.797.227.191.518.287.873.287zm9.78-2.274c0 .97-.223 1.747-.668 2.335-.446.588-1.043.882-1.793.882-.801 0-1.42-.283-1.858-.85l-.053.733h-.996v-9h1.084v3.357c.438-.543 1.041-.814 1.81-.814.77 0 1.375.291 1.814.873.44.582.66 1.379.66 2.39zm-1.084-.123c0-.738-.143-1.308-.428-1.71-.285-.403-.696-.604-1.23-.604-.716 0-1.23.332-1.542.996v2.742c.332.664.85.996 1.553.996.52 0 .924-.2 1.213-.603.289-.403.434-1.008.434-1.817zm2.543-5.777h1.084v9h-1.084zm5.449 9.117c-.86 0-1.559-.282-2.098-.846-.539-.565-.808-1.32-.808-2.265v-.2c0-.628.12-1.19.36-1.684a2.81 2.81 0 0 1 1.008-1.16c.431-.28.9-.419 1.403-.419.824 0 1.465.271 1.922.814.457.543.685 1.32.685 2.332v.452h-4.294c.015.625.198 1.13.547 1.514.35.385.794.577 1.333.577.383 0 .707-.078.973-.234.266-.156.498-.363.697-.621l.662.516c-.53.816-1.328 1.224-2.39 1.224zm-.135-5.683c-.438 0-.805.159-1.102.477-.296.319-.48.765-.55 1.339h3.175v-.082c-.03-.55-.18-.978-.445-1.28-.265-.303-.625-.454-1.078-.454zM637 546.5h-1.09v-7.225l-2.185.803v-.984l3.105-1.166h.17zm-180.592-7.606h-2.742v7.606h-1.119v-7.606h-2.736v-.925h6.597zm4.055 7.606c-.062-.125-.113-.348-.152-.668-.504.524-1.106.785-1.805.785-.625 0-1.138-.177-1.538-.53-.4-.354-.6-.802-.6-1.345 0-.66.25-1.173.752-1.538s1.208-.548 2.118-.548h1.055v-.498c0-.379-.113-.68-.34-.905-.226-.225-.56-.337-1.002-.337-.386 0-.71.098-.972.293-.262.195-.393.432-.393.709h-1.09c0-.316.113-.622.337-.917.225-.295.53-.528.914-.7a3.075 3.075 0 0 1 1.269-.258c.73 0 1.303.183 1.717.548.414.365.629.868.644 1.509v2.918c0 .582.074 1.044.223 1.388v.094zm-1.799-.826c.34 0 .662-.088.967-.264.305-.176.525-.404.662-.685v-1.301h-.85c-1.328 0-1.992.389-1.992 1.166 0 .34.114.605.34.797.227.191.518.287.873.287zm9.78-2.274c0 .97-.223 1.747-.668 2.335-.446.588-1.043.882-1.793.882-.801 0-1.42-.283-1.858-.85l-.053.733h-.996v-9h1.084v3.357c.438-.543 1.041-.814 1.81-.814.77 0 1.375.291 1.814.873.44.582.66 1.379.66 2.39zm-1.084-.123c0-.738-.143-1.308-.428-1.71-.285-.403-.695-.604-1.23-.604-.716 0-1.23.332-1.542.996v2.742c.332.664.85.996 1.553.996.52 0 .924-.2 1.213-.603.29-.403.434-1.008.434-1.817zm2.543-5.777h1.084v9h-1.084zm5.449 9.117c-.86 0-1.559-.282-2.098-.846-.539-.565-.809-1.32-.809-2.265v-.2c0-.628.12-1.19.36-1.684a2.81 2.81 0 0 1 1.009-1.16c.431-.28.9-.419 1.403-.419.824 0 1.465.271 1.922.814.457.543.685 1.32.685 2.332v.452h-4.295c.016.625.199 1.13.548 1.514.35.385.794.577 1.333.577.383 0 .707-.078.973-.234.266-.156.498-.363.697-.621l.662.516c-.53.816-1.328 1.224-2.39 1.224zm-.135-5.683c-.438 0-.805.159-1.102.477-.296.319-.48.765-.55 1.339h3.175v-.082c-.03-.55-.18-.978-.445-1.28-.266-.303-.625-.454-1.078-.454zM485.5 546.5h-1.09v-7.225l-2.185.803v-.984l3.105-1.166h.17zm-231.092 61.394h-2.742v7.606h-1.119v-7.606h-2.736v-.925h6.597zm4.055 7.606c-.062-.125-.113-.348-.152-.668-.504.524-1.106.785-1.805.785-.625 0-1.138-.177-1.538-.53-.4-.354-.6-.802-.6-1.345 0-.66.25-1.173.752-1.538s1.208-.548 2.118-.548h1.055v-.498c0-.379-.113-.68-.34-.905-.226-.225-.56-.337-1.002-.337-.386 0-.71.098-.972.293-.262.195-.393.432-.393.709h-1.09c0-.316.113-.622.337-.917a2.3 2.3 0 0 1 .914-.7 3.075 3.075 0 0 1 1.269-.258c.73 0 1.303.183 1.717.548.414.365.629.868.644 1.509v2.918c0 .582.074 1.044.223 1.388v.094zm-1.799-.826c.34 0 .662-.088.967-.264.305-.176.525-.404.662-.685v-1.301h-.85c-1.328 0-1.992.389-1.992 1.166 0 .34.114.605.34.797.227.191.518.287.873.287zm9.78-2.274c0 .97-.223 1.747-.668 2.335-.446.588-1.043.882-1.793.882-.801 0-1.42-.283-1.858-.85l-.053.733h-.996v-9h1.084v3.357c.438-.543 1.041-.814 1.81-.814.77 0 1.375.291 1.814.873.44.582.66 1.379.66 2.39zm-1.084-.123c0-.738-.143-1.308-.428-1.71-.285-.403-.695-.604-1.23-.604-.715 0-1.23.332-1.542.996v2.742c.332.664.85.996 1.553.996.52 0 .924-.2 1.213-.603.29-.403.434-1.008.434-1.817zm2.543-5.777h1.084v9h-1.084zm5.449 9.117c-.86 0-1.559-.282-2.098-.846-.539-.565-.809-1.32-.809-2.265v-.2c0-.628.12-1.19.36-1.684a2.81 2.81 0 0 1 1.009-1.16c.431-.28.9-.419 1.403-.419.824 0 1.465.271 1.922.814.457.543.685 1.32.685 2.332v.452h-4.295c.016.625.199 1.13.548 1.514.35.385.794.577 1.333.577.383 0 .707-.078.973-.234.266-.156.498-.363.697-.621l.662.516c-.53.816-1.328 1.224-2.39 1.224zm-.135-5.683c-.438 0-.805.159-1.102.477-.296.319-.48.765-.55 1.339h3.175v-.082c-.03-.55-.18-.978-.445-1.28-.266-.303-.625-.454-1.078-.454zm12.311 5.566h-5.59v-.78l2.953-3.28c.437-.497.74-.9.905-1.21a2.02 2.02 0 0 0 .25-.964c0-.446-.136-.81-.405-1.096-.27-.285-.63-.428-1.078-.428-.54 0-.958.154-1.257.46-.299.307-.448.734-.448 1.28h-1.084c0-.785.253-1.42.758-1.904.506-.484 1.183-.726 2.03-.726.794 0 1.42.208 1.882.624.46.416.691.97.691 1.66 0 .84-.535 1.84-1.606 3l-2.285 2.48h4.284z" fill="#212121"/><path d="M211.075 501.5v-7.11h2.007c.619 0 1.165.137 1.64.41.476.274.843.663 1.102 1.168.259.504.39 1.084.393 1.738v.454c0 .67-.13 1.258-.388 1.763a2.73 2.73 0 0 1-1.109 1.162c-.48.27-1.039.409-1.677.415zm.938-6.338v5.571h.986c.723 0 1.285-.224 1.687-.673.402-.45.603-1.09.603-1.92v-.414c0-.808-.19-1.435-.569-1.883-.379-.447-.917-.674-1.614-.68zm8.74 6.338c-.052-.104-.094-.29-.127-.557-.42.437-.921.655-1.504.655-.52 0-.948-.148-1.282-.442a1.43 1.43 0 0 1-.5-1.12c0-.551.209-.978.627-1.283.419-.304 1.007-.456 1.765-.456h.88v-.415c0-.316-.095-.567-.284-.755-.189-.187-.467-.28-.835-.28-.322 0-.592.081-.81.244-.218.163-.328.36-.328.59h-.908c0-.263.094-.518.281-.763a1.92 1.92 0 0 1 .762-.584c.32-.143.673-.215 1.057-.215.609 0 1.085.152 1.43.457.346.304.525.723.538 1.257v2.432c0 .485.062.87.185 1.157v.078zm-1.5-.688c.284 0 .553-.074.807-.22.253-.147.437-.337.551-.571v-1.084h-.708c-1.106 0-1.66.323-1.66.971 0 .283.095.505.283.664.19.16.432.24.728.24zm4.903-5.874v1.279h.987v.698h-.987v3.276c0 .212.044.37.132.477.088.105.238.158.45.158.103 0 .247-.02.429-.058v.732a2.62 2.62 0 0 1-.693.098c-.404 0-.708-.122-.913-.367-.206-.244-.308-.59-.308-1.04v-3.276h-.962v-.698h.962v-1.28zm5.303 6.562c-.052-.104-.094-.29-.127-.557-.42.437-.921.655-1.504.655-.52 0-.948-.148-1.282-.442a1.43 1.43 0 0 1-.5-1.12c0-.551.209-.978.627-1.283.419-.304 1.007-.456 1.765-.456h.88v-.415c0-.316-.095-.567-.284-.755-.189-.187-.467-.28-.835-.28-.322 0-.592.081-.81.244-.218.163-.327.36-.327.59h-.909c0-.263.094-.518.281-.763a1.92 1.92 0 0 1 .762-.584c.32-.143.673-.215 1.057-.215.609 0 1.086.152 1.43.457.346.304.525.723.538 1.257v2.432c0 .485.062.87.185 1.157v.078zm-1.499-.688c.283 0 .552-.074.806-.22.254-.147.437-.337.551-.571v-1.084h-.708c-1.106 0-1.66.323-1.66.971 0 .283.095.505.283.664.19.16.432.24.728.24zm6.753-.713a.665.665 0 0 0-.276-.57c-.184-.134-.505-.25-.962-.348-.457-.098-.82-.215-1.089-.352-.268-.137-.467-.3-.595-.488a1.168 1.168 0 0 1-.193-.674c0-.433.183-.8.549-1.099.366-.3.834-.449 1.404-.449.599 0 1.085.155 1.457.464.373.31.56.705.56 1.187h-.909c0-.248-.105-.461-.315-.64-.21-.18-.474-.269-.793-.269-.329 0-.586.072-.772.215a.676.676 0 0 0-.278.562c0 .218.086.382.259.493.172.11.484.216.935.317.45.101.816.222 1.096.362.28.14.487.308.623.505.135.197.202.437.202.72 0 .472-.189.85-.566 1.135-.378.285-.868.428-1.47.428a2.66 2.66 0 0 1-1.123-.225 1.827 1.827 0 0 1-.764-.627 1.512 1.512 0 0 1-.276-.872h.903a.935.935 0 0 0 .364.72c.226.178.525.266.896.266.342 0 .616-.069.823-.207a.638.638 0 0 0 .31-.554zm4.272 1.499c-.716 0-1.298-.236-1.748-.706-.449-.47-.674-1.1-.674-1.887v-.166c0-.524.1-.992.3-1.404.201-.412.48-.734.84-.967.36-.233.75-.349 1.17-.349.687 0 1.22.226 1.602.679.38.452.57 1.1.57 1.943v.376h-3.578c.013.521.165.942.456 1.262.292.321.662.481 1.111.481.32 0 .59-.065.81-.195.222-.13.416-.303.582-.518l.552.43c-.443.68-1.107 1.02-1.993 1.02zm-.112-4.737c-.365 0-.67.133-.918.398-.247.266-.4.637-.459 1.116h2.647v-.068c-.026-.46-.15-.815-.372-1.067-.22-.253-.52-.379-.898-.379zm4.443-1.923v1.279h.987v.698h-.987v3.276c0 .212.044.37.132.477.088.105.238.158.45.158.104 0 .247-.02.43-.058v.732a2.619 2.619 0 0 1-.694.098c-.404 0-.708-.122-.913-.367-.205-.244-.308-.59-.308-1.04v-3.276h-.962v-.698h.962v-1.28zm4.659 6.562v-7.11h2.324c.771 0 1.352.16 1.74.48.39.318.584.79.584 1.415 0 .332-.094.626-.283.881a1.836 1.836 0 0 1-.772.594c.384.107.688.311.911.613.223.3.334.66.334 1.076 0 .638-.206 1.14-.62 1.504-.413.365-.997.547-1.753.547zm.937-3.325v2.558h1.548c.436 0 .78-.113 1.033-.339.252-.226.378-.538.378-.935 0-.856-.465-1.284-1.396-1.284zm0-.752h1.416c.41 0 .738-.103.984-.308.246-.205.369-.483.369-.835 0-.39-.114-.674-.342-.852-.228-.177-.575-.266-1.04-.266h-1.387z" fill="#757575"/><path d="M254.408 538.894h-2.742v7.606h-1.119v-7.606h-2.736v-.925h6.597zm4.055 7.606c-.062-.125-.113-.348-.152-.668-.504.524-1.106.785-1.805.785-.625 0-1.138-.177-1.538-.53-.4-.354-.6-.802-.6-1.345 0-.66.25-1.173.752-1.538s1.208-.548 2.118-.548h1.055v-.498c0-.379-.113-.68-.34-.905-.226-.225-.56-.337-1.002-.337-.386 0-.71.098-.972.293-.262.195-.393.432-.393.709h-1.09c0-.316.113-.622.337-.917a2.3 2.3 0 0 1 .914-.7 3.075 3.075 0 0 1 1.269-.258c.73 0 1.303.183 1.717.548.414.365.629.868.644 1.509v2.918c0 .582.074 1.044.223 1.388v.094zm-1.799-.826c.34 0 .662-.088.967-.264.305-.176.525-.404.662-.685v-1.301h-.85c-1.328 0-1.992.389-1.992 1.166 0 .34.114.605.34.797.227.191.518.287.873.287zm9.78-2.274c0 .97-.223 1.747-.668 2.335-.446.588-1.043.882-1.793.882-.801 0-1.42-.283-1.858-.85l-.053.733h-.996v-9h1.084v3.357c.438-.543 1.041-.814 1.81-.814.77 0 1.375.291 1.814.873.44.582.66 1.379.66 2.39zm-1.084-.123c0-.738-.143-1.308-.428-1.71-.285-.403-.695-.604-1.23-.604-.715 0-1.23.332-1.542.996v2.742c.332.664.85.996 1.553.996.52 0 .924-.2 1.213-.603.29-.403.434-1.008.434-1.817zm2.543-5.777h1.084v9h-1.084zm5.449 9.117c-.86 0-1.559-.282-2.098-.846-.539-.565-.809-1.32-.809-2.265v-.2c0-.628.12-1.19.36-1.684a2.81 2.81 0 0 1 1.009-1.16c.431-.28.9-.419 1.403-.419.824 0 1.465.271 1.922.814.457.543.685 1.32.685 2.332v.452h-4.295c.016.625.199 1.13.548 1.514.35.385.794.577 1.333.577.383 0 .707-.078.973-.234.266-.156.498-.363.697-.621l.662.516c-.53.816-1.328 1.224-2.39 1.224zm-.135-5.683c-.438 0-.805.159-1.102.477-.296.319-.48.765-.55 1.339h3.175v-.082c-.03-.55-.18-.978-.445-1.28-.266-.303-.625-.454-1.078-.454zM283.5 546.5h-1.09v-7.225l-2.185.803v-.984l3.105-1.166h.17z" fill="#212121"/><path d="M50.763 460.217V463h-.938v-7.11h2.622c.778 0 1.388.2 1.829.596.441.397.661.923.661 1.577 0 .69-.215 1.222-.646 1.595-.432.372-1.05.559-1.853.559zm0-.767h1.684c.502 0 .886-.118 1.153-.354s.4-.577.4-1.023c0-.423-.133-.761-.4-1.015-.267-.254-.634-.386-1.099-.396h-1.738zm7.783-.923a2.708 2.708 0 0 0-.444-.034c-.593 0-.995.252-1.206.757V463h-.904v-5.283h.88l.014.61c.296-.472.716-.708 1.26-.708.175 0 .309.023.4.068zm.424 1.783c0-.518.102-.983.306-1.397.203-.413.487-.732.85-.957a2.313 2.313 0 0 1 1.242-.337c.72 0 1.301.25 1.746.747.444.498.666 1.16.666 1.988v.063c0 .514-.098.976-.295 1.384a2.243 2.243 0 0 1-.845.955 2.34 2.34 0 0 1-1.262.342c-.716 0-1.296-.25-1.74-.747-.445-.498-.667-1.158-.667-1.978zm.909.107c0 .586.136 1.056.408 1.411.271.355.635.532 1.09.532.46 0 .824-.18 1.095-.54.27-.359.405-.863.405-1.51 0-.58-.138-1.05-.413-1.41a1.312 1.312 0 0 0-1.096-.539c-.446 0-.806.178-1.079.533-.273.354-.41.862-.41 1.523zm5.967-2.7v5.893c0 1.016-.46 1.524-1.382 1.524a1.69 1.69 0 0 1-.552-.088v-.723c.104.026.241.04.41.04.202 0 .356-.055.462-.164.105-.11.158-.299.158-.57v-5.912zm-.996-1.402c0-.143.044-.266.134-.368.09-.103.22-.154.393-.154.176 0 .31.05.4.151a.535.535 0 0 1 .137.371.516.516 0 0 1-.137.367c-.09.097-.224.146-.4.146-.176 0-.308-.049-.396-.146a.527.527 0 0 1-.131-.367zm4.643 6.783c-.716 0-1.299-.236-1.748-.706-.45-.47-.674-1.1-.674-1.887v-.166c0-.524.1-.992.3-1.404.2-.412.48-.734.84-.967.36-.233.75-.349 1.17-.349.687 0 1.22.226 1.601.679.381.452.572 1.1.572 1.943v.376h-3.58c.014.521.166.942.457 1.262.291.321.662.481 1.111.481.319 0 .59-.065.81-.195.222-.13.416-.303.582-.518l.551.43c-.442.68-1.106 1.02-1.992 1.02zm-.112-4.737c-.365 0-.67.133-.918.398-.248.266-.4.637-.46 1.116h2.647v-.068c-.026-.46-.15-.815-.37-1.067-.222-.253-.522-.379-.9-.379zm5.337 3.999c.322 0 .604-.097.844-.293.241-.195.375-.44.4-.732h.855c-.016.303-.12.59-.312.864a2.058 2.058 0 0 1-.77.654c-.32.163-.66.245-1.017.245-.72 0-1.292-.24-1.717-.72-.424-.48-.637-1.137-.637-1.97v-.152c0-.514.095-.972.283-1.372.19-.4.46-.712.813-.933.354-.221.771-.332 1.253-.332.592 0 1.085.178 1.477.532.392.355.601.816.627 1.382h-.854a1.245 1.245 0 0 0-.388-.842c-.233-.22-.52-.33-.862-.33-.46 0-.815.166-1.067.496-.252.33-.378.808-.378 1.433v.17c0 .61.125 1.078.376 1.407.25.329.608.493 1.074.493zm4.341-5.922v1.279h.986v.698h-.986v3.276c0 .212.044.37.131.477.088.105.238.158.45.158.104 0 .247-.02.43-.058V463a2.62 2.62 0 0 1-.694.098c-.404 0-.708-.122-.913-.367-.205-.244-.308-.59-.308-1.04v-3.276h-.962v-.698h.962v-1.28zm6.977 2.177l1.704-2.724h1.104l-2.246 3.525 2.3 3.584h-1.114l-1.748-2.773L84.278 463H83.17l2.305-3.584-2.251-3.525h1.098z" fill="#757575"/><path d="M102.908 607.894h-2.742v7.606h-1.119v-7.606h-2.736v-.925h6.597zm4.055 7.606c-.062-.125-.113-.348-.152-.668-.504.524-1.106.785-1.805.785-.625 0-1.138-.177-1.538-.53-.4-.354-.6-.802-.6-1.345 0-.66.25-1.173.752-1.538s1.208-.548 2.118-.548h1.055v-.498c0-.379-.113-.68-.34-.905-.226-.225-.56-.337-1.002-.337-.386 0-.71.098-.972.293-.262.195-.393.432-.393.709h-1.09c0-.316.113-.622.337-.917a2.3 2.3 0 0 1 .914-.7 3.075 3.075 0 0 1 1.269-.258c.73 0 1.303.183 1.717.548.414.365.629.868.644 1.509v2.918c0 .582.074 1.044.223 1.388v.094zm-1.799-.826c.34 0 .662-.088.967-.264.305-.176.525-.404.662-.685v-1.301h-.85c-1.328 0-1.992.389-1.992 1.166 0 .34.114.605.34.797.227.191.518.287.873.287zm9.78-2.274c0 .97-.223 1.747-.668 2.335-.446.588-1.043.882-1.793.882-.801 0-1.42-.283-1.858-.85l-.053.733h-.996v-9h1.084v3.357c.438-.543 1.041-.814 1.81-.814.77 0 1.375.291 1.814.873.44.582.66 1.379.66 2.39zm-1.084-.123c0-.738-.143-1.308-.428-1.71-.285-.403-.695-.604-1.23-.604-.715 0-1.23.332-1.542.996v2.742c.332.664.85.996 1.553.996.52 0 .924-.2 1.213-.603.29-.403.434-1.008.434-1.817zm2.543-5.777h1.084v9h-1.084zm5.449 9.117c-.86 0-1.559-.282-2.098-.846-.539-.565-.808-1.32-.808-2.265v-.2c0-.628.12-1.19.36-1.684a2.81 2.81 0 0 1 1.008-1.16c.431-.28.9-.419 1.403-.419.824 0 1.465.271 1.922.814.457.543.685 1.32.685 2.332v.452h-4.294c.015.625.198 1.13.547 1.514.35.385.794.577 1.333.577.383 0 .707-.078.973-.234.266-.156.498-.363.697-.621l.662.516c-.53.816-1.328 1.224-2.39 1.224zm-.135-5.683c-.438 0-.805.159-1.102.477-.296.319-.48.765-.55 1.339h3.175v-.082c-.03-.55-.18-.978-.445-1.28-.266-.303-.625-.454-1.078-.454zm12.311 5.566h-5.59v-.78l2.953-3.28c.437-.497.74-.9.905-1.21a2.02 2.02 0 0 0 .25-.964c0-.446-.136-.81-.405-1.096-.27-.285-.63-.428-1.078-.428-.54 0-.958.154-1.257.46-.299.307-.448.734-.448 1.28h-1.084c0-.785.253-1.42.758-1.904.506-.484 1.183-.726 2.03-.726.794 0 1.42.208 1.882.624.46.416.691.97.691 1.66 0 .84-.535 1.84-1.605 3l-2.286 2.48h4.284z" fill="#212121"/><path d="M59.575 501.5v-7.11h2.007c.619 0 1.165.137 1.64.41.476.274.843.663 1.102 1.168.259.504.39 1.084.393 1.738v.454c0 .67-.13 1.258-.388 1.763a2.73 2.73 0 0 1-1.109 1.162c-.48.27-1.039.409-1.677.415zm.938-6.338v5.571h.986c.723 0 1.285-.224 1.687-.673.402-.45.603-1.09.603-1.92v-.414c0-.808-.19-1.435-.569-1.883-.379-.447-.917-.674-1.614-.68zm8.74 6.338c-.052-.104-.094-.29-.127-.557-.42.437-.921.655-1.504.655-.52 0-.948-.148-1.282-.442a1.43 1.43 0 0 1-.5-1.12c0-.551.209-.978.627-1.283.419-.304 1.007-.456 1.765-.456h.88v-.415c0-.316-.095-.567-.284-.755-.189-.187-.467-.28-.835-.28-.322 0-.592.081-.81.244-.218.163-.328.36-.328.59h-.908c0-.263.094-.518.281-.763a1.92 1.92 0 0 1 .762-.584c.32-.143.673-.215 1.057-.215.609 0 1.085.152 1.43.457.346.304.525.723.538 1.257v2.432c0 .485.061.87.185 1.157v.078zm-1.5-.688c.284 0 .553-.074.807-.22a1.33 1.33 0 0 0 .551-.571v-1.084h-.708c-1.106 0-1.66.323-1.66.971 0 .283.095.505.283.664.19.16.432.24.728.24zm4.903-5.874v1.279h.987v.698h-.987v3.276c0 .212.044.37.132.477.088.105.238.158.45.158.103 0 .247-.02.429-.058v.732a2.619 2.619 0 0 1-.693.098c-.404 0-.708-.122-.913-.367-.206-.244-.308-.59-.308-1.04v-3.276h-.962v-.698h.962v-1.28zm5.303 6.562c-.052-.104-.094-.29-.127-.557-.42.437-.921.655-1.504.655-.52 0-.948-.148-1.282-.442a1.43 1.43 0 0 1-.5-1.12c0-.551.209-.978.627-1.283.419-.304 1.007-.456 1.765-.456h.88v-.415c0-.316-.095-.567-.284-.755-.189-.187-.467-.28-.835-.28-.322 0-.592.081-.81.244-.218.163-.327.36-.327.59h-.909c0-.263.094-.518.281-.763a1.92 1.92 0 0 1 .762-.584c.32-.143.673-.215 1.057-.215.609 0 1.086.152 1.43.457.346.304.525.723.538 1.257v2.432c0 .485.062.87.185 1.157v.078zm-1.499-.688c.283 0 .552-.074.806-.22.254-.147.437-.337.551-.571v-1.084h-.708c-1.106 0-1.66.323-1.66.971 0 .283.095.505.283.664.19.16.432.24.728.24zm6.753-.713a.665.665 0 0 0-.276-.57c-.184-.134-.505-.25-.962-.348-.457-.098-.82-.215-1.089-.352-.268-.137-.467-.3-.595-.488a1.168 1.168 0 0 1-.193-.674c0-.433.183-.8.549-1.099.366-.3.834-.449 1.404-.449.599 0 1.085.155 1.457.464.373.31.56.705.56 1.187h-.909c0-.248-.105-.461-.315-.64-.21-.18-.474-.269-.793-.269-.329 0-.586.072-.772.215a.676.676 0 0 0-.278.562c0 .218.086.382.259.493.172.11.484.216.935.317.45.101.816.222 1.096.362.28.14.487.308.623.505.135.197.202.437.202.72 0 .472-.189.85-.566 1.135-.378.285-.868.428-1.47.428a2.66 2.66 0 0 1-1.123-.225 1.827 1.827 0 0 1-.764-.627 1.512 1.512 0 0 1-.276-.872h.903a.935.935 0 0 0 .364.72c.226.178.525.266.896.266.342 0 .616-.069.823-.207a.638.638 0 0 0 .31-.554zm4.272 1.499c-.716 0-1.298-.236-1.748-.706-.449-.47-.674-1.1-.674-1.887v-.166c0-.524.1-.992.3-1.404.201-.412.48-.734.84-.967.36-.233.75-.349 1.17-.349.687 0 1.22.226 1.602.679.38.452.57 1.1.57 1.943v.376h-3.578c.013.521.165.942.456 1.262.292.321.662.481 1.111.481.32 0 .59-.065.81-.195.222-.13.416-.303.582-.518l.552.43c-.443.68-1.107 1.02-1.993 1.02zm-.112-4.737c-.365 0-.67.133-.918.398-.247.266-.4.637-.459 1.116h2.647v-.068c-.026-.46-.15-.815-.372-1.067-.22-.253-.52-.379-.898-.379zm4.443-1.923v1.279h.987v.698h-.987v3.276c0 .212.044.37.132.477.088.105.238.158.45.158.104 0 .247-.02.43-.058v.732a2.619 2.619 0 0 1-.694.098c-.404 0-.708-.122-.913-.367-.205-.244-.308-.59-.308-1.04v-3.276h-.962v-.698h.962v-1.28zm8.584 4.707h-2.978l-.67 1.855h-.966l2.715-7.11h.82l2.72 7.11h-.962zm-2.695-.772h2.417l-1.21-3.325z" fill="#757575"/><path d="M102.908 538.894h-2.742v7.606h-1.119v-7.606h-2.736v-.925h6.597zm4.055 7.606c-.062-.125-.113-.348-.152-.668-.504.524-1.106.785-1.805.785-.625 0-1.138-.177-1.538-.53-.4-.354-.6-.802-.6-1.345 0-.66.25-1.173.752-1.538s1.208-.548 2.118-.548h1.055v-.498c0-.379-.113-.68-.34-.905-.226-.225-.56-.337-1.002-.337-.386 0-.71.098-.972.293-.262.195-.393.432-.393.709h-1.09c0-.316.113-.622.337-.917a2.3 2.3 0 0 1 .914-.7 3.075 3.075 0 0 1 1.269-.258c.73 0 1.303.183 1.717.548.414.365.629.868.644 1.509v2.918c0 .582.074 1.044.223 1.388v.094zm-1.799-.826c.34 0 .662-.088.967-.264.305-.176.525-.404.662-.685v-1.301h-.85c-1.328 0-1.992.389-1.992 1.166 0 .34.114.605.34.797.227.191.518.287.873.287zm9.78-2.274c0 .97-.223 1.747-.668 2.335-.446.588-1.043.882-1.793.882-.801 0-1.42-.283-1.858-.85l-.053.733h-.996v-9h1.084v3.357c.438-.543 1.041-.814 1.81-.814.77 0 1.375.291 1.814.873.44.582.66 1.379.66 2.39zm-1.084-.123c0-.738-.143-1.308-.428-1.71-.285-.403-.695-.604-1.23-.604-.715 0-1.23.332-1.542.996v2.742c.332.664.85.996 1.553.996.52 0 .924-.2 1.213-.603.29-.403.434-1.008.434-1.817zm2.543-5.777h1.084v9h-1.084zm5.449 9.117c-.86 0-1.559-.282-2.098-.846-.539-.565-.808-1.32-.808-2.265v-.2c0-.628.12-1.19.36-1.684a2.81 2.81 0 0 1 1.008-1.16c.431-.28.9-.419 1.403-.419.824 0 1.465.271 1.922.814.457.543.685 1.32.685 2.332v.452h-4.294c.015.625.198 1.13.547 1.514.35.385.794.577 1.333.577.383 0 .707-.078.973-.234.266-.156.498-.363.697-.621l.662.516c-.53.816-1.328 1.224-2.39 1.224zm-.135-5.683c-.438 0-.805.159-1.102.477-.296.319-.48.765-.55 1.339h3.175v-.082c-.03-.55-.18-.978-.445-1.28-.266-.303-.625-.454-1.078-.454zM132 546.5h-1.09v-7.225l-2.185.803v-.984l3.105-1.166h.17zM341.59 376v-8.531h2.79c.925 0 1.621.191 2.088.574.467.383.7.95.7 1.7 0 .398-.113.75-.34 1.057a2.203 2.203 0 0 1-.925.712c.46.129.825.374 1.092.735.268.361.402.792.402 1.292 0 .766-.248 1.367-.744 1.805-.496.437-1.198.656-2.104.656zm1.125-3.99v3.07h1.858c.523 0 .936-.136 1.239-.407.303-.272.454-.646.454-1.122 0-1.028-.559-1.541-1.676-1.541zm0-.903h1.7c.492 0 .885-.123 1.18-.369.295-.246.442-.58.442-1.002 0-.468-.136-.81-.41-1.022-.273-.213-.69-.32-1.248-.32h-1.664zm7.354 4.893h-1.084v-6.34h1.084zm-1.172-8.022a.65.65 0 0 1 .161-.445c.107-.12.267-.181.478-.181.21 0 .37.06.48.181a.64.64 0 0 1 .164.445.619.619 0 0 1-.164.44c-.11.117-.27.176-.48.176-.211 0-.37-.059-.478-.176a.626.626 0 0 1-.161-.44zm2.648 4.799c0-.988.229-1.774.686-2.358.457-.584 1.062-.876 1.816-.876.774 0 1.377.273 1.81.82l.054-.703h.99v6.188c0 .82-.243 1.466-.73 1.94-.486.472-1.14.708-1.96.708a3.26 3.26 0 0 1-1.341-.293c-.438-.195-.772-.463-1.002-.803l.562-.65c.465.574 1.033.861 1.705.861.528 0 .939-.148 1.234-.445.294-.297.442-.715.442-1.254v-.545c-.434.5-1.025.75-1.775.75-.743 0-1.343-.299-1.802-.896-.46-.598-.689-1.412-.689-2.444zm1.09.123c0 .715.147 1.277.44 1.685.293.408.703.612 1.23.612.684 0 1.186-.31 1.506-.931v-2.895c-.332-.605-.83-.908-1.494-.908-.528 0-.94.205-1.237.615-.296.41-.445 1.018-.445 1.822zm12.586-.89c0 .824-.13 1.534-.392 2.13-.262.595-.63 1.061-1.102 1.397l1.523 1.195-.767.71-1.799-1.43a3.66 3.66 0 0 1-.89.105c-.673 0-1.268-.165-1.788-.495-.52-.33-.923-.8-1.21-1.412-.287-.611-.434-1.32-.442-2.124v-.615c0-.82.143-1.545.428-2.174.285-.629.688-1.11 1.21-1.444.521-.334 1.118-.501 1.79-.501.687 0 1.292.166 1.813.498.522.332.923.81 1.204 1.432.281.623.422 1.35.422 2.183zm-1.125-.551c0-1.004-.2-1.778-.6-2.323-.4-.545-.972-.818-1.714-.818-.707 0-1.265.27-1.673.812-.408.54-.618 1.292-.63 2.253v.627c0 .976.204 1.746.612 2.308.408.563.976.844 1.702.844.727 0 1.29-.265 1.688-.794.398-.53.603-1.288.615-2.276zm6.604 3.914c-.422.496-1.041.744-1.858.744-.676 0-1.19-.196-1.544-.589-.353-.392-.532-.973-.536-1.743v-4.125h1.084v4.096c0 .96.39 1.441 1.172 1.441.828 0 1.379-.308 1.652-.925v-4.612h1.084V376h-1.031zm5.332.744c-.86 0-1.559-.282-2.098-.846-.54-.565-.809-1.32-.809-2.265v-.2c0-.628.12-1.19.36-1.684.241-.494.577-.88 1.009-1.16.431-.28.899-.419 1.403-.419.824 0 1.465.271 1.922.814.457.543.685 1.32.685 2.332v.452h-4.295c.016.625.199 1.13.548 1.514.35.385.794.577 1.333.577.383 0 .707-.078.973-.234.266-.156.498-.363.697-.621l.662.516c-.531.816-1.328 1.224-2.39 1.224zm-.135-5.683c-.438 0-.805.159-1.102.477-.297.318-.48.765-.55 1.339h3.175v-.082c-.03-.55-.18-.978-.445-1.28-.266-.303-.625-.454-1.078-.454zm6.926.199a3.25 3.25 0 0 0-.534-.041c-.71 0-1.193.303-1.447.908v4.5h-1.084v-6.34h1.055l.017.733c.356-.567.86-.85 1.512-.85.211 0 .371.027.48.082zm3.175 3.779l1.477-4.752h1.16l-2.549 7.318c-.394 1.055-1.021 1.583-1.88 1.583l-.206-.018-.404-.076v-.88l.293.024c.367 0 .653-.074.858-.222.206-.149.375-.42.507-.815l.24-.644-2.261-6.27h1.183zm9.258-2.215c-.965-.277-1.667-.618-2.106-1.022a1.954 1.954 0 0 1-.66-1.497c0-.672.27-1.228.806-1.667.537-.44 1.236-.66 2.095-.66.586 0 1.108.114 1.567.34.46.227.815.54 1.067.938.252.398.378.834.378 1.307h-1.131c0-.516-.164-.921-.492-1.216-.328-.295-.791-.443-1.389-.443-.555 0-.987.122-1.298.367-.31.244-.466.583-.466 1.016 0 .348.148.642.443.882.295.24.797.46 1.506.66.709.198 1.263.418 1.664.658.4.24.697.52.89.841.194.32.29.697.29 1.131 0 .691-.27 1.245-.808 1.661-.54.416-1.26.624-2.162.624a4.01 4.01 0 0 1-1.641-.337c-.508-.224-.9-.532-1.175-.923a2.252 2.252 0 0 1-.413-1.33h1.13c0 .516.191.923.572 1.222.381.299.89.448 1.527.448.593 0 1.048-.12 1.365-.363.316-.242.474-.572.474-.99 0-.418-.146-.741-.439-.97-.293-.228-.824-.454-1.594-.677zm7.067 3.92c-.86 0-1.559-.282-2.098-.846-.54-.565-.809-1.32-.809-2.265v-.2c0-.628.12-1.19.36-1.684.241-.494.577-.88 1.009-1.16.431-.28.899-.419 1.403-.419.824 0 1.465.271 1.922.814.457.543.685 1.32.685 2.332v.452H400.5c.016.625.199 1.13.548 1.514.35.385.794.577 1.333.577.383 0 .707-.078.973-.234.266-.156.498-.363.697-.621l.662.516c-.531.816-1.328 1.224-2.39 1.224zm-.135-5.683c-.438 0-.805.159-1.102.477-.297.318-.48.765-.55 1.339h3.175v-.082c-.03-.55-.18-.978-.445-1.28-.266-.303-.625-.454-1.078-.454zm6.926.199a3.25 3.25 0 0 0-.534-.041c-.71 0-1.193.303-1.447.908v4.5h-1.084v-6.34h1.055l.018.733c.355-.567.859-.85 1.511-.85.211 0 .371.027.48.082zm3.193 3.897l1.57-4.87h1.108L412.71 376h-.826l-2.297-6.34h1.108zm4.898 1.47h-1.083v-6.34h1.083zm-1.171-8.022c0-.175.053-.324.16-.445.108-.12.267-.181.478-.181.211 0 .371.06.48.181a.64.64 0 0 1 .165.445.62.62 0 0 1-.164.44c-.11.117-.27.176-.48.176-.212 0-.37-.059-.478-.176a.626.626 0 0 1-.161-.44zm5.449 7.254c.387 0 .724-.117 1.014-.351.289-.234.449-.527.48-.879h1.025c-.02.363-.144.709-.375 1.037a2.47 2.47 0 0 1-.923.785 2.663 2.663 0 0 1-1.221.293c-.863 0-1.55-.288-2.06-.864-.51-.576-.764-1.364-.764-2.364v-.182c0-.617.113-1.166.34-1.646a2.59 2.59 0 0 1 .975-1.12c.424-.265.925-.398 1.503-.398.71 0 1.302.213 1.772.639.471.425.722.978.753 1.658h-1.025a1.494 1.494 0 0 0-.466-1.01 1.45 1.45 0 0 0-1.034-.396c-.55 0-.978.198-1.28.594-.303.397-.454.97-.454 1.72v.205c0 .73.15 1.293.45 1.688.302.394.731.591 1.29.591zm6.369.885c-.86 0-1.559-.282-2.098-.846-.539-.565-.808-1.32-.808-2.265v-.2c0-.628.12-1.19.36-1.684s.576-.88 1.008-1.16c.431-.28.9-.419 1.403-.419.824 0 1.465.271 1.922.814.457.543.686 1.32.686 2.332v.452h-4.295c.015.625.198 1.13.548 1.514.35.385.794.577 1.333.577.382 0 .707-.078.972-.234.266-.156.498-.363.697-.621l.663.516c-.532.816-1.329 1.224-2.391 1.224zm-.135-5.683c-.437 0-.804.159-1.101.477-.297.318-.48.765-.551 1.339h3.176v-.082c-.032-.55-.18-.978-.446-1.28-.265-.303-.625-.454-1.078-.454z" fill="#212121"/></g></svg>